<?xml version="1.0" encoding="utf-8"?>
<!-- Generator: Adobe Illustrator 16.2.0, SVG Export Plug-In . SVG Version: 6.00 Build 0)  -->
<!DOCTYPE svg PUBLIC "-//W3C//DTD SVG 1.1//EN" "http://www.w3.org/Graphics/SVG/1.1/DTD/svg11.dtd">
<svg version="1.1" id="Слой_1" xmlns="http://www.w3.org/2000/svg" xmlns:xlink="http://www.w3.org/1999/xlink" x="0px" y="0px"
	 width="1200px" height="400px" viewBox="0 0 1200 400" enable-background="new 0 0 1200 400" xml:space="preserve">
<rect id="fon_rect" y="2" fill="#07378C" width="1200" height="400"/>
<path id="ic_1_1" fill="#4569A9" d="M140,30H70v8.75h70V30z M144.375,73.75V65L140,43.125H70L65.625,65v8.75H70V100h43.75V73.75
	h17.5V100H140V73.75H144.375z M105,91.25H78.75v-17.5H105V91.25z"/>
<path id="ic_1_2" fill="#FFFFFF" d="M194.965,30C175.645,30,160,45.68,160,65s15.645,35,34.965,35C214.32,100,230,84.32,230,65
	S214.32,30,194.965,30z M195,93c-15.47,0-28-12.53-28-28s12.53-28,28-28s28,12.53,28,28S210.47,93,195,93z M207.25,61.5
	c2.905,0,5.25-2.345,5.25-5.25S210.155,51,207.25,51S202,53.345,202,56.25S204.345,61.5,207.25,61.5z M182.75,61.5
	c2.905,0,5.25-2.345,5.25-5.25S185.655,51,182.75,51s-5.25,2.345-5.25,5.25S179.845,61.5,182.75,61.5z M195,84.25
	c8.155,0,15.085-5.11,17.886-12.25h-35.771C179.915,79.14,186.845,84.25,195,84.25z"/>
<path id="ic_1_3" fill="#4569A9" d="M255.8,47.167c-2.433,0.933-4.133,3.4-4.133,6.167v40c0,3.667,2.966,6.667,6.667,6.667h53.333
	c3.701,0,6.667-3,6.667-6.667v-40c0-3.701-2.966-6.667-6.667-6.667h-39L300.2,35.533L297.933,30L255.8,47.167z M268.333,93.333
	c-5.533,0-10-4.466-10-10s4.467-10,10-10s10,4.466,10,10S273.866,93.333,268.333,93.333z M311.667,66.667H305V60h-6.667v6.667h-40
	V53.333h53.333L311.667,66.667L311.667,66.667z"/>
<path id="ic_1_4" fill="#4569A9" d="M402.222,30h-54.444C343.5,30,340,33.5,340,37.778v54.444c0,4.278,3.5,7.778,7.778,7.778h54.444
	c4.278,0,7.778-3.5,7.778-7.778V37.778C410,33.5,406.5,30,402.222,30z M363.333,84.444h-7.778V57.222h7.778V84.444z M378.889,84.444
	h-7.777V45.556h7.777V84.444z M394.444,84.444h-7.778V68.889h7.778V84.444L394.444,84.444z"/>
<path id="ic_1_5" fill="#4569A9" d="M484.215,55.743l-16.153-24.194C467.359,30.516,466.181,30,465,30s-2.36,0.516-3.062,1.585
	l-16.153,24.157h-17.666c-2.029,0-3.688,1.66-3.688,3.688c0,0.332,0.037,0.664,0.147,0.996l9.368,34.189
	c0.849,3.097,3.688,5.384,7.081,5.384h47.944c3.394,0,6.232-2.287,7.117-5.384l9.368-34.189l0.111-0.996
	c0-2.029-1.66-3.688-3.688-3.688L484.215,55.743L484.215,55.743z M453.937,55.743L465,39.516l11.063,16.227H453.937L453.937,55.743z
	 M465,85.248c-4.057,0-7.376-3.319-7.376-7.376c0-4.058,3.319-7.376,7.376-7.376s7.376,3.319,7.376,7.376S469.057,85.248,465,85.248
	z"/>
<path id="ic_1_6" fill="#4569A9" d="M586.111,57.222h-11.667V52.79c6.688-1.751,11.667-7.778,11.667-15.012h-11.667v-3.889
	c0-2.139-1.751-3.889-3.89-3.889h-31.11c-2.14,0-3.89,1.75-3.89,3.889v3.889h-11.667c0,7.234,4.979,13.261,11.667,15.012v4.433
	h-11.667c0,7.234,4.979,13.262,11.667,15.012v4.432h-11.667c0,7.235,4.979,13.262,11.667,15.012v4.433
	c0,2.138,1.75,3.889,3.89,3.889h31.11c2.139,0,3.89-1.75,3.89-3.889v-4.433c6.688-1.75,11.667-7.777,11.667-15.012h-11.667v-4.432
	C581.132,70.484,586.111,64.456,586.111,57.222z M555,92.222c-4.317,0-7.778-3.499-7.778-7.778c0-4.278,3.46-7.778,7.778-7.778
	c4.278,0,7.777,3.5,7.777,7.778C562.777,88.723,559.318,92.222,555,92.222z M555,72.778c-4.317,0-7.778-3.5-7.778-7.778
	s3.46-7.778,7.778-7.778c4.278,0,7.777,3.5,7.777,7.778S559.318,72.778,555,72.778z M555,53.333c-4.317,0-7.778-3.5-7.778-7.778
	c0-4.317,3.46-7.778,7.778-7.778c4.278,0,7.777,3.46,7.777,7.778C562.777,49.834,559.318,53.333,555,53.333z"/>
<path id="ic_1_7" fill="#4569A9" d="M672.966,37c0-3.851-3.115-7-6.966-7h-28l-21,21v42c0,3.851,3.149,7,7,7h42.034
	c3.853,0,6.966-3.149,6.966-7L672.966,37z M634.5,89.5h-7v-7h7V89.5z M662.5,89.5h-7v-7h7V89.5z M634.5,75.5h-7v-14h7V75.5z
	 M648.5,89.5h-7v-14h7V89.5z M648.5,68.5h-7v-7h7V68.5z M662.5,75.5h-7v-14h7V75.5z"/>
<path id="ic_1_8" fill="#F2F2F2" d="M763,37h-56c-3.885,0-6.965,3.114-6.965,7L700,86c0,3.886,3.115,7,7,7h56c3.886,0,7-3.114,7-7
	V44C770,40.114,766.886,37,763,37z M763,86h-56V65h56V86z M763,51h-56v-7h56V51z"/>
<path id="ic_1_9" fill="#4569A9" d="M853.637,36.363h-57.272c-3.533,0-6.363,2.832-6.363,6.364v38.182c0,3.5,2.83,6.364,6.363,6.364
	h15.909v6.364h25.454v-6.364h15.909c3.5,0,6.333-2.863,6.333-6.364L860,42.727C860,39.195,857.137,36.363,853.637,36.363z
	 M853.637,80.909h-57.272V42.727h57.272V80.909z M837.728,61.818l-22.272,12.727V49.091L837.728,61.818z"/>
<path id="ic_1_10" fill="#FFFFFF" d="M901,86c-3.851,0-6.966,3.149-6.966,7s3.115,7,6.966,7s7-3.149,7-7S904.851,86,901,86z M880,30
	v7h7l12.601,26.565l-4.726,8.575C894.313,73.121,894,74.274,894,75.5c0,3.851,3.149,7,7,7h42v-7h-40.53
	c-0.488,0-0.875-0.386-0.875-0.875l0.106-0.42l3.148-5.705h26.073c2.625,0,4.936-1.436,6.125-3.605L949.58,42.18
	c0.279-0.489,0.42-1.085,0.42-1.68c0-1.925-1.576-3.5-3.5-3.5h-51.766l-3.289-7H880z M936,86c-3.851,0-6.966,3.149-6.966,7
	s3.115,7,6.966,7s7-3.149,7-7S939.851,86,936,86z"/>
<path id="ic_1_11" fill="#4569A9" d="M1005,30c-12.496,0-23.695,5.39-31.466,14L1005,100l31.466-56
	C1028.729,35.425,1017.496,30,1005,30z M987.5,47.5c0-3.851,3.149-7,7-7s7,3.149,7,7s-3.149,7-7,7S987.5,51.351,987.5,47.5z
	 M1005,75.5c-3.851,0-7-3.149-7-7s3.149-7,7-7s7,3.149,7,7S1008.851,75.5,1005,75.5z"/>
<path id="ic_1_12" fill="#4569A9" d="M1116.438,59.283c-1.983-10.062-10.822-17.617-21.438-17.617
	c-8.428,0-15.75,4.783-19.396,11.784c-8.78,0.934-15.604,8.371-15.604,17.383c0,9.654,7.846,17.5,17.5,17.5h37.917
	c8.049,0,14.583-6.534,14.583-14.583C1130,66.051,1124.021,59.808,1116.438,59.283z M1115.417,82.5H1077.5
	c-6.445,0-11.667-5.221-11.667-11.667s5.222-11.667,11.667-11.667h2.07c1.926-6.737,8.079-11.667,15.43-11.667
	c8.867,0,16.042,7.175,16.042,16.042V65h4.375c4.842,0,8.75,3.908,8.75,8.75S1120.259,82.5,1115.417,82.5z"/>
<path id="ic_2_1" fill="#4569A9" d="M105,120l-28.636,12.727v19.091c0,17.658,12.218,34.173,28.636,38.182
	c16.419-4.009,28.636-20.523,28.636-38.182v-19.091L105,120z M98.636,170.909l-12.727-12.728l4.486-4.486l8.241,8.208l20.968-20.968
	l4.487,4.518L98.636,170.909z"/>
<path id="ic_2_2" fill="#4569A9" d="M216,141c0-11.585-9.415-21-21-21s-21,9.415-21,21c0,15.75,21,38.5,21,38.5S216,156.75,216,141z
	 M188,141c0-3.851,3.149-7,7-7s7,3.149,7,7s-3.114,7-7,7C191.149,148,188,144.851,188,141z M170.5,183v7h49v-7H170.5z"/>
<path id="ic_2_3" fill="#4569A9" d="M297.728,120h-25.455c-4.391,0-7.955,3.564-7.955,7.955v54.091c0,4.39,3.564,7.954,7.955,7.954
	h25.455c4.39,0,7.954-3.564,7.954-7.954v-54.091C305.682,123.564,302.118,120,297.728,120z M285,186.818
	c-2.641,0-4.772-2.132-4.772-4.772c0-2.642,2.131-4.773,4.772-4.773s4.773,2.132,4.773,4.773S287.641,186.818,285,186.818z
	 M299.318,174.091h-28.637v-44.545h28.637V174.091z"/>
<path id="ic_2_4" fill="#4569A9" d="M368,170.75L389,155l-21-15.75V170.75z M375,120c-19.32,0-35,15.68-35,35s15.68,35,35,35
	s35-15.68,35-35S394.32,120,375,120z M375,183c-15.435,0-28-12.564-28-28c0-15.435,12.565-28,28-28c15.436,0,28,12.565,28,28
	C403,170.436,390.436,183,375,183z"/>
<path id="ic_2_5" fill="#4569A9" d="M430,144.743l6.364,6.364c15.813-15.813,41.459-15.813,57.271,0l6.364-6.364
	C480.687,125.429,449.346,125.429,430,144.743z M455.454,170.197l9.546,9.545l9.545-9.545
	C469.296,164.915,460.736,164.915,455.454,170.197z M442.727,157.47l6.364,6.364c8.782-8.782,23.037-8.782,31.818,0l6.363-6.364
	C474.989,145.188,455.041,145.188,442.727,157.47z"/>
<path id="ic_2_6" fill="#4569A9" d="M569.318,158.182c-3.819,0-9.77,1.081-14.318,3.182c-4.549-2.132-10.5-3.182-14.318-3.182
	c-6.903,0-20.682,3.437-20.682,10.341v8.75h70v-8.75C590,161.619,576.223,158.182,569.318,158.182z M556.591,172.5h-31.817v-3.978
	c0-1.719,8.146-5.568,15.908-5.568c7.764,0,15.909,3.85,15.909,5.568V172.5z M585.228,172.5h-23.863v-3.978
	c0-1.464-0.638-2.737-1.654-3.881c2.801-0.956,6.236-1.688,9.609-1.688c7.764,0,15.908,3.85,15.908,5.568V172.5z M540.682,155
	c6.142,0,11.137-4.996,11.137-11.136c0-6.14-4.996-11.137-11.137-11.137c-6.14,0-11.136,4.996-11.136,11.137
	C529.546,150.005,534.542,155,540.682,155z M540.682,137.5c3.5,0,6.364,2.863,6.364,6.364c0,3.5-2.863,6.363-6.364,6.363
	s-6.363-2.863-6.363-6.363C534.318,140.363,537.182,137.5,540.682,137.5z M569.318,155c6.14,0,11.137-4.996,11.137-11.136
	c0-6.14-4.997-11.137-11.137-11.137c-6.141,0-11.137,4.996-11.137,11.137C558.182,150.005,563.179,155,569.318,155z M569.318,137.5
	c3.5,0,6.363,2.863,6.363,6.364c0,3.5-2.862,6.363-6.363,6.363c-3.5,0-6.363-2.863-6.363-6.363
	C562.955,140.363,565.818,137.5,569.318,137.5z"/>
<path id="ic_2_7" fill="#4569A9" d="M615,182.272h10.909v-32.727H615V182.272z M675,152.272c0-3-2.455-5.455-5.455-5.455h-17.209
	l2.59-12.463l0.084-0.873c0-1.119-0.465-2.155-1.201-2.891l-2.891-2.864L632.973,145.7c-1.01,0.982-1.607,2.345-1.607,3.845v27.272
	c0,3.001,2.453,5.455,5.454,5.455h24.546c2.263,0,4.199-1.363,5.017-3.326l8.238-19.228c0.246-0.628,0.381-1.282,0.381-1.991v-5.209
	l-0.027-0.028L675,152.272z"/>
<path id="ic_2_8" fill="#4569A9" d="M766.249,146.375l-22.469-1.937L735,123.75l-8.781,20.718l-22.468,1.907l17.061,14.78
	l-5.124,21.97L735,171.469l19.311,11.656l-5.092-21.97L766.249,146.375z M735,165.625v-29.062l5.344,12.624l13.688,1.188
	l-10.374,8.999l3.125,13.374L735,165.625z"/>
<path id="ic_2_9" fill="#4569A9" d="M837.728,120h-25.454c-5.281,0-9.546,4.264-9.546,9.545v50.909c0,5.283,4.265,9.546,9.546,9.546
	h25.454c5.282,0,9.545-4.263,9.545-9.546v-50.909C847.272,124.264,843.01,120,837.728,120z M831.363,183.637h-12.729v-3.183h12.729
	V183.637z M841.704,174.091h-33.409v-44.545h33.409V174.091z"/>
<path id="ic_2_10" fill="#4569A9" d="M943,127h-56c-3.851,0-6.965,3.149-6.965,7L880,176c0,3.851,3.149,7,7,7h56
	c3.851,0,7-3.149,7-7v-42C950,130.149,946.851,127,943,127z M943,141l-28,17.5L887,141v-7l28,17.5l28-17.5V141z"/>
<path id="ic_2_11" fill="#4569A9" d="M1034.244,136.45l0.04-0.04l-14.468-14.466l-4.122,4.123l8.207,8.205
	c-3.657,1.401-6.264,4.899-6.264,9.061c0,5.366,4.356,9.723,9.724,9.723c1.4,0,2.683-0.312,3.889-0.816v28.038
	c0,2.139-1.751,3.89-3.889,3.89c-2.14,0-3.89-1.751-3.89-3.89v-17.5c0-4.277-3.5-7.777-7.777-7.777h-3.89v-27.222
	c0-4.278-3.5-7.778-7.777-7.778h-23.333c-4.278,0-7.778,3.5-7.778,7.778V190h38.89v-29.167h5.833v19.444
	c0,5.366,4.356,9.723,9.724,9.723c5.366,0,9.723-4.356,9.723-9.723v-36.944C1037.084,140.65,1035.993,138.199,1034.244,136.45z
	 M1004.027,147.223h-23.333v-19.445h23.333V147.223z M1027.361,147.223c-2.14,0-3.89-1.751-3.89-3.89c0-2.138,1.75-3.889,3.89-3.889
	c2.138,0,3.889,1.751,3.889,3.889C1031.25,145.472,1029.499,147.223,1027.361,147.223z"/>
<path id="ic_2_12" fill="#4569A9" d="M1067.291,175.417h55.418v5.833h-55.418V175.417z M1124.371,148.115
	c-0.611-2.332-3.033-3.73-5.367-3.09l-15.487,4.142l-20.125-18.753l-5.629,1.487l12.075,20.912l-14.496,3.879l-5.746-4.491
	l-4.229,1.137l5.308,9.217l2.245,3.88l4.668-1.254l15.487-4.142l12.687-3.384l15.488-4.141
	C1123.613,152.841,1124.984,150.45,1124.371,148.115z"/>
<path id="ic_3_1" fill="#4569A9" d="M133.636,216.363H76.364c-3.5,0-6.364,2.863-6.364,6.363v38.183c0,3.5,2.863,6.362,6.364,6.362
	h15.909v6.365h25.454v-6.365h15.909c3.5,0,6.333-2.862,6.333-6.362L140,222.729C140,219.227,137.137,216.363,133.636,216.363z
	 M133.636,260.909H76.364v-38.183h57.272V260.909z"/>
<path id="ic_3_2" fill="#4569A9" d="M195,221.137c-15.909,0-29.496,9.896-35,23.863c5.504,13.967,19.091,23.863,35,23.863
	s29.496-9.896,35-23.863C224.496,231.032,210.909,221.137,195,221.137z M195,260.909c-8.782,0-15.909-7.128-15.909-15.909
	s7.127-15.909,15.909-15.909c8.781,0,15.909,7.128,15.909,15.909S203.781,260.909,195,260.909z M195,235.455
	c-5.281,0-9.545,4.264-9.545,9.545c0,5.282,4.264,9.546,9.545,9.546c5.282,0,9.545-4.264,9.545-9.546
	C204.545,239.719,200.282,235.455,195,235.455z"/>
<path id="ic_3_3" fill="#4569A9" d="M296.667,243.057v-23.334L285,208.057l-11.667,11.666v7.777H250v54.443h70v-38.889h-23.333
	V243.057z M265.556,274.167h-7.778v-7.778h7.778V274.167L265.556,274.167z M265.556,258.611h-7.778v-7.778h7.778V258.611
	L265.556,258.611z M265.556,243.057h-7.778v-7.779h7.778V243.057L265.556,243.057z M288.889,274.167h-7.777v-7.778h7.777V274.167z
	 M288.889,258.611h-7.777v-7.778h7.777V258.611z M288.889,243.057h-7.777v-7.779h7.777V243.057z M288.889,227.5h-7.777v-7.777h7.777
	V227.5z M312.222,274.167h-7.778v-7.778h7.778V274.167z M312.222,258.611h-7.778v-7.778h7.778V258.611z"/>
<path id="ic_3_4" fill="#4569A9" d="M375,266.639l23.174,13.986l-6.148-26.363l20.475-17.736l-26.962-2.287L375,209.375
	l-10.538,24.861l-26.962,2.289l20.475,17.735l-6.149,26.363L375,266.639z"/>
<path id="ic_3_5" fill="#4569A9" d="M468.5,227.5h-7v14h-14v7h14v14h7v-14h14v-7h-14V227.5z M465,210c-19.285,0-35,15.715-35,35
	c0,19.284,15.715,35,35,35c19.284,0,35-15.716,35-35C500,225.715,484.284,210,465,210z M465,273c-15.435,0-28-12.564-28-28
	s12.565-28,28-28c15.437,0,28,12.564,28,28S480.437,273,465,273z"/>
<path id="ic_3_6" fill="#4569A9" d="M588.056,210l-0.623,0.117l-20.766,8.05L543.333,210l-21.933,7.389
	c-0.817,0.272-1.4,0.973-1.4,1.866v58.802c0,1.09,0.854,1.943,1.944,1.943l0.622-0.118l20.767-8.049L566.667,280l21.932-7.389
	c0.818-0.271,1.401-0.973,1.401-1.866v-58.802C590,210.855,589.146,210,588.056,210z M566.667,272.223l-23.333-8.207v-46.238
	l23.333,8.207V272.223z"/>
<path id="ic_3_7" fill="#4569A9" d="M645,210c-19.32,0-35,15.68-35,35s15.68,35,35,35s35-15.68,35-35S664.32,210,645,210z
	 M645,260.75c-8.715,0-15.75-7.034-15.75-15.75c0-8.715,7.035-15.75,15.75-15.75c8.716,0,15.75,7.035,15.75,15.75
	C660.75,253.716,653.716,260.75,645,260.75z M645,241.5c-1.926,0-3.5,1.574-3.5,3.5c0,1.924,1.574,3.5,3.5,3.5
	c1.924,0,3.5-1.576,3.5-3.5C648.5,243.074,646.924,241.5,645,241.5z"/>
<path id="ic_3_8" fill="#4569A9" d="M724.5,213.5l-6.405,7H707c-3.851,0-7,3.148-7,7v42c0,3.852,3.149,7,7,7h56c3.851,0,7-3.148,7-7
	v-42c0-3.852-3.149-7-7-7h-11.095l-6.405-7H724.5z M735,266c-9.659,0-17.5-7.841-17.5-17.5S725.341,231,735,231
	s17.5,7.841,17.5,17.5S744.659,266,735,266z"/>
<path id="ic_3_9" fill="#4569A9" d="M825,254.211c6.116,0,11.017-4.938,11.017-11.053l0.036-22.105
	c0-6.115-4.937-11.053-11.053-11.053c-6.115,0-11.053,4.938-11.053,11.053v22.105C813.947,249.273,818.885,254.211,825,254.211z
	 M820.579,220.684c0-2.432,1.989-4.42,4.421-4.42s4.422,1.988,4.422,4.42l-0.037,22.844c0,2.432-1.953,4.421-4.385,4.421
	s-4.421-1.989-4.421-4.421V220.684z M844.525,243.158c0,11.053-9.357,18.789-19.525,18.789s-19.526-7.736-19.526-18.789h-6.263
	c0,12.563,10.021,22.951,22.105,24.757V280h7.366v-12.085c12.086-1.767,22.105-12.157,22.105-24.757H844.525z"/>
<path id="ic_3_10" fill="#4569A9" d="M930.75,212.887c-6.091,0-11.937,2.836-15.75,7.316c-3.815-4.48-9.66-7.316-15.75-7.316
	c-10.78,0-19.25,8.471-19.25,19.25c0,13.231,11.899,24.012,29.926,40.391l5.074,4.586l5.076-4.618
	C938.101,256.148,950,245.368,950,232.137C950,221.357,941.53,212.887,930.75,212.887z M915.351,267.313L915,267.663l-0.351-0.351
	C897.99,252.229,887,242.252,887,232.137c0-7,5.25-12.25,12.25-12.25c5.391,0,10.641,3.465,12.495,8.262h6.545
	c1.818-4.797,7.068-8.262,12.46-8.262c7,0,12.25,5.25,12.25,12.25C943,242.252,932.012,252.229,915.351,267.313z"/>
<path id="ic_3_11" fill="#4569A9" d="M1030,263.75c3.438,0,6.22-2.813,6.22-6.249l0.029-31.251c0-3.438-2.811-6.249-6.249-6.249
	h-50.001c-3.438,0-6.249,2.813-6.249,6.249v31.251c0,3.437,2.812,6.249,6.249,6.249H967.5v6.249h75v-6.249H1030z M979.999,226.25
	H1030v31.251h-50.001V226.25z"/>
<path id="ic_3_12" fill="#4569A9" d="M1095,210c-18.312,0-33.158,14.848-33.158,33.158v25.789c0,6.115,4.938,11.053,11.054,11.053
	h11.053v-29.475h-14.736v-7.367c0-14.26,11.531-25.789,25.789-25.789s25.789,11.529,25.789,25.789v7.367h-14.736V280h11.053
	c6.116,0,11.054-4.938,11.054-11.053v-25.789C1128.158,224.848,1113.31,210,1095,210z"/>
<path id="ic_4_1" fill="#FFFFFF" d="M105,308.313c5.076,0,9.188,4.111,9.188,9.188s-4.112,9.188-9.188,9.188
	c-5.075,0-9.188-4.111-9.188-9.188S99.925,308.313,105,308.313 M105,347.688c12.993,0,26.688,6.39,26.688,9.188v4.813H78.312v-4.813
	C78.312,354.076,92.006,347.688,105,347.688 M105,300c-9.668,0-17.5,7.831-17.5,17.5S95.332,335,105,335s17.5-7.831,17.5-17.5
	S114.668,300,105,300z M105,339.375c-11.681,0-35,5.861-35,17.5V370h70v-13.125C140,345.236,116.681,339.375,105,339.375z"/>
<path id="ic_4_2" fill="#4569A9" d="M223,315.75h-14v-7c0-3.887-3.114-7-7-7h-14c-3.885,0-7,3.113-7,7v7h-14
	c-3.885,0-6.965,3.113-6.965,7L160,361.25c0,3.887,3.115,7,7,7h56c3.886,0,7-3.113,7-7v-38.5C230,318.863,226.886,315.75,223,315.75
	z M202,315.75h-14v-7h14V315.75z"/>
<path id="ic_4_3" fill="#4569A9" d="M269.623,339.13l10.36-10.358l-25.7-25.664c-5.71,5.711-5.71,14.975,0,20.722L269.623,339.13z
	 M294.443,332.505c5.603,2.599,13.473,0.77,19.293-5.054c6.993-6.991,8.346-17.022,2.965-22.403
	c-5.345-5.345-15.376-4.026-22.405,2.966c-5.82,5.82-7.651,13.69-5.052,19.293l-35.73,35.729l5.163,5.163l25.223-25.151
	l25.187,25.188l5.162-5.162l-25.187-25.188L294.443,332.505L294.443,332.505z"/>
<path id="ic_4_4" fill="#4569A9" d="M398.333,335c0-7.408-3.471-14.029-8.867-18.287l-2.8-16.713h-23.333l-2.771,16.713
	c-5.425,4.258-8.896,10.852-8.896,18.287s3.471,14.029,8.896,18.287L363.333,370h23.333l2.8-16.713
	C394.863,349.029,398.333,342.408,398.333,335z M357.5,335c0-9.654,7.846-17.5,17.5-17.5s17.5,7.846,17.5,17.5
	s-7.846,17.5-17.5,17.5S357.5,344.654,357.5,335z"/>
<path id="ic_4_5" fill="#4569A9" d="M475.208,316.771c3.208,0,5.833-2.624,5.833-5.834c0-3.209-2.625-5.832-5.833-5.832
	s-5.833,2.623-5.833,5.832C469.375,314.147,472,316.771,475.208,316.771z M444.583,335.729c-8.167,0-14.583,6.418-14.583,14.584
	s6.417,14.582,14.583,14.582c8.167,0,14.583-6.416,14.583-14.582S452.75,335.729,444.583,335.729z M444.583,360.521
	c-5.542,0-10.208-4.668-10.208-10.209s4.667-10.207,10.208-10.207s10.208,4.666,10.208,10.207S450.125,360.521,444.583,360.521z
	 M461.5,331.354l7-7l2.333,2.334c3.791,3.791,8.75,6.125,14.875,6.125v-5.834c-4.375,0-7.875-1.751-10.5-4.375l-5.542-5.541
	c-1.458-1.166-2.917-1.75-4.667-1.75s-3.208,0.584-4.083,1.75l-8.167,8.166c-1.167,1.166-1.75,2.625-1.75,4.082
	c0,1.752,0.583,3.21,1.75,4.086l9.333,8.166v14.582h5.833v-18.084L461.5,331.354z M485.417,335.729
	c-8.166,0-14.583,6.418-14.583,14.584s6.417,14.582,14.583,14.582c8.167,0,14.583-6.416,14.583-14.582
	S493.583,335.729,485.417,335.729z M485.417,360.521c-5.541,0-10.208-4.668-10.208-10.209s4.667-10.207,10.208-10.207
	c5.542,0,10.208,4.666,10.208,10.207S490.958,360.521,485.417,360.521z"/>
<path id="ic_4_6" fill="#4569A9" d="M555,300c-16.284,0-29.474,1.842-29.474,14.736v35c0,7.108,5.783,12.896,12.895,12.896
	l-5.525,5.526V370h44.211v-1.842l-5.526-5.526c7.109,0,12.895-5.786,12.895-12.896v-35C584.474,301.842,571.284,300,555,300z
	 M538.421,355.263c-3.058,0-5.525-2.468-5.525-5.525c0-3.059,2.468-5.525,5.525-5.525c3.06,0,5.526,2.468,5.526,5.525
	S541.479,355.263,538.421,355.263z M551.316,333.158h-18.422v-18.422h18.422V333.158z M571.579,355.263
	c-3.06,0-5.526-2.468-5.526-5.525c0-3.059,2.468-5.525,5.526-5.525c3.058,0,5.525,2.468,5.525,5.525
	S574.637,355.263,571.579,355.263z M577.104,333.158h-18.421v-18.422h18.421V333.158z"/>
<path id="ic_4_7" fill="#4569A9" d="M671.911,307.815c-0.778-2.294-2.955-3.928-5.522-3.928h-42.776
	c-2.567,0-4.705,1.634-5.522,3.928L610,331.111v31.11c0,2.139,1.751,3.89,3.889,3.89h3.89c2.139,0,3.89-1.751,3.89-3.89v-3.89
	h46.666v3.89c0,2.139,1.751,3.89,3.89,3.89h3.89c2.138,0,3.889-1.751,3.889-3.89v-31.11L671.911,307.815z M623.611,346.667
	c-3.229,0-5.834-2.605-5.834-5.834c0-3.228,2.604-5.833,5.834-5.833c3.228,0,5.833,2.605,5.833,5.833
	C629.444,344.063,626.839,346.667,623.611,346.667z M666.389,346.667c-3.228,0-5.833-2.605-5.833-5.834
	c0-3.228,2.605-5.833,5.833-5.833c3.229,0,5.834,2.605,5.834,5.833C672.223,344.063,669.617,346.667,666.389,346.667z
	 M617.777,327.223l5.834-17.5h42.776l5.834,17.5H617.777z"/>
<path id="ic_4_8" fill="#4569A9" d="M724.5,334.125c-2.415,0-4.375,1.96-4.375,4.375s1.96,4.375,4.375,4.375s4.375-1.96,4.375-4.375
	S726.915,334.125,724.5,334.125z M745.5,334.125c-2.415,0-4.375,1.96-4.375,4.375s1.96,4.375,4.375,4.375s4.375-1.96,4.375-4.375
	S747.915,334.125,745.5,334.125z M735,300c-19.32,0-35,15.68-35,35s15.68,35,35,35s35-15.68,35-35S754.32,300,735,300z M735,363
	c-15.436,0-28-12.564-28-28c0-1.016,0.07-2.03,0.174-3.012c8.263-3.674,14.808-10.429,18.235-18.793
	c6.337,8.96,16.765,14.805,28.561,14.805c2.731,0,5.356-0.314,7.875-0.909C762.58,329.576,763,332.234,763,335
	C763,350.436,750.436,363,735,363z"/>
<path id="ic_4_9" fill="#4569A9" d="M846,300h-28l-20.93,21L797,363c0,3.851,3.149,7,7,7h42c3.851,0,7-3.149,7-7v-56
	C853,303.149,849.851,300,846,300z M825,321h-7v-14h7V321z M835.5,321h-7v-14h7V321z M846,321h-7v-14h7V321z"/>
<path id="ic_4_10" fill="#4569A9" d="M948.25,349v-7l-28-17.5v-19.25c0-2.905-2.345-5.25-5.25-5.25s-5.25,2.345-5.25,5.25v19.25
	l-28,17.5v7l28-8.75v19.25l-7,5.25V370l12.25-3.5l12.25,3.5v-5.25l-7-5.25v-19.25L948.25,349z"/>
<path id="ic_4_11" fill="#FFFFFF" d="M1020.854,335.21l-3.711-3.71l-17.08,17.08l-7.42-7.421l-3.709,3.712L1000.063,356
	L1020.854,335.21z M1029.5,307h-3.5v-7h-7v7h-28v-7h-7v7h-3.5c-3.887,0-6.966,3.149-6.966,7l-0.034,49c0,3.851,3.113,7,7,7h49
	c3.851,0,7-3.149,7-7v-49C1036.5,310.149,1033.351,307,1029.5,307z M1029.5,363h-49v-38.5h49V363z"/>
<path id="ic_4_12" fill="#4569A9" d="M1121,302.5h-52c-3.575,0-6.469,2.925-6.469,6.5l-0.031,58.5l13-13h45.5
	c3.575,0,6.5-2.925,6.5-6.5v-39C1127.5,305.425,1124.575,302.5,1121,302.5z M1075.5,325.25h39v6.5h-39V325.25z M1101.5,341.5h-26
	V335h26V341.5z M1114.5,322h-39v-6.5h39V322z"/>
<g id="ar1">
	
		<path id="du1" opacity="0.5" fill="none" stroke="#F2F2F2" stroke-width="2" stroke-linejoin="round" stroke-miterlimit="10" enable-background="new    " d="
		M502.5,200c-2.365-35.491-46.856-79.986-97-106.363c-45.5-23.934-129.568-27.89-161.166-27.89"/>
	<polygon id="st1" opacity="0.5" fill="#FFFFFF" enable-background="new    " points="244.247,69.831 233.045,65.631 244.334,62.25 
			"/>
</g>
<g id="ar2">
	<polygon id="st2" fill="#FFFFFF" points="680.082,62.122 691.292,66.302 680.008,69.703 	"/>
	<path id="du2" fill="none" stroke="#F2F2F2" stroke-width="2" stroke-linejoin="round" stroke-miterlimit="10" d="M584.475,190.289
		c-7.189-22.455-14.967-50.962,1.637-76.407C605.851,83.633,648.779,66.041,680,66.041"/>
</g>
<g id="ar3">
	<polygon id="st3" opacity="0.5" fill="#FFFFFF" enable-background="new    " points="882.699,112.197 891.519,104.114 
		889.417,115.71 	"/>
	
		<path id="du3" opacity="0.5" fill="none" stroke="#F2F2F2" stroke-width="2" stroke-linejoin="round" stroke-miterlimit="10" enable-background="new    " d="
		M886,113.882c-6.34,12.083-22.62,25.624-47.5,38.203c-6.116,3.092-32.542,14.843-55.333,21.082
		c-45.271,12.391-101.067,17.336-119.333,17.115"/>
</g>
<g id="ar4">
	
		<polygon id="st4" opacity="0.5" fill="#FFFFFF" stroke="#FFFFFF" stroke-width="0.5" stroke-miterlimit="10" enable-background="new    " points="
		960.14,190.82 970.507,184.851 965.932,195.711 	"/>
	
		<path id="du4" opacity="0.5" fill="none" stroke="#FFFFFF" stroke-width="2" stroke-miterlimit="10" enable-background="new    " d="
		M646.833,190.289c0,5.896,180.353,17.647,247.71,19.711c21.054,0.646,53.582,0,68.457-16.5"/>
</g>
<g id="ar5">
	<polygon id="st5" fill="#FFFFFF" points="960.897,334.404 972.301,338.022 961.2,341.979 	"/>
	<path id="du5" fill="none" stroke="#FFFFFF" stroke-width="2" stroke-miterlimit="10" d="M646.833,190.289
		c0,77.936,215.646,148.211,320.667,148.211"/>
</g>
<g id="ar6">
	<polygon id="st6_1" opacity="0.5" fill="#FFFFFF" enable-background="new    " points="582.012,286.741 577.795,297.935 
		574.432,286.644 	"/>
	
		<path id="du6_1" opacity="0.5" fill="none" stroke="#FFFFFF" stroke-width="2" stroke-miterlimit="10" enable-background="new    " d="
		M647.833,193.5c-9.686,5.211-36.833,8.5-60.722,45c-10.213,15.605-8.826,38.333-8.826,48.086"/>
</g>
<g id="ar7">
	<polygon id="st7" fill="#FFFFFF" points="142.011,299.432 127.26,311.579 132.662,294.633 	"/>
	<path id="du7" fill="none" stroke="#FFFFFF" stroke-width="2" stroke-miterlimit="10" d="M502.5,200
		c-91.917,0-181.736-9.426-238.182,8.057C208,225.5,173.483,247.176,137,297"/>
</g>
<g id="button" display="none">
	<g display="inline" opacity="0.5">
		<path d="M827,233c0,5.521-4.478,10-10,10H382c-5.523,0-10-4.479-10-10v-55c0-5.523,4.477-10,10-10h435c5.522,0,10,4.477,10,10V233
			z"/>
	</g>
	<g display="inline">
		<path fill="#EB1148" d="M827,228c0,5.521-4.478,10-10,10H382c-5.523,0-10-4.479-10-10v-55c0-5.523,4.477-10,10-10h435
			c5.522,0,10,4.477,10,10V228z"/>
	</g>
</g>
<path fill="#07378C" d="M388.084,98.647"/>
</svg>
